<svg version="1.1" viewBox="0 0 162 113" xmlns="http://www.w3.org/2000/svg"><g transform="matrix(1.33 0 0 -1.33 0 113)"><g transform="scale(.1)"><path d="m1189 718c-14 52.3-55.1 93.4-107 107-94.7 25.4-475 25.4-475 25.4s-380 0-475-25.4c-52.3-14-93.4-55.1-107-107-25.4-94.7-25.4-292-25.4-292s0-198 25.4-292c14-52.3 55.1-93.4 107-107 94.7-25.4 475-25.4 475-25.4s380 0 475 25.4c52.3 14 93.4 55.1 107 107 25.4 94.7 25.4 292 25.4 292s0 198-25.4 292" fill="#ed1d24"/><path d="m486 243 316 182-316 182z" fill="#fff"/></g></g></svg>
